<svg width="199" height="37" viewBox="0 0 199 37" fill="none" xmlns="http://www.w3.org/2000/svg">
<path d="M46.2017 32.3201V3.22919H53.2329V26.6099H65.3352V32.3201H46.2017Z" fill="black"/>
<path d="M75.1257 32.6894C73.7336 32.6894 72.4978 32.4574 71.4183 31.9934C70.3482 31.5199 69.5007 30.8097 68.8757 29.8627C68.2601 28.9063 67.9524 27.7084 67.9524 26.269C67.9524 25.0568 68.1654 24.0341 68.5916 23.2008C69.0177 22.3674 69.6048 21.6904 70.3529 21.1695C71.101 20.6487 71.9628 20.2557 72.9382 19.9906C73.9135 19.7159 74.9552 19.5313 76.0632 19.4366C77.3037 19.3229 78.3027 19.2046 79.0603 19.0815C79.8179 18.9489 80.3671 18.7642 80.7081 18.5275C81.0584 18.2813 81.2336 17.9356 81.2336 17.4906V17.4195C81.2336 16.6904 80.9827 16.1269 80.4808 15.7292C79.9789 15.3315 79.3018 15.1326 78.4495 15.1326C77.531 15.1326 76.7923 15.3315 76.2336 15.7292C75.6749 16.1269 75.3198 16.6762 75.1683 17.3769L68.762 17.1496C68.9514 15.8239 69.4391 14.6402 70.2251 13.5985C71.0206 12.5474 72.1096 11.7235 73.4921 11.1269C74.8842 10.5209 76.5556 10.2178 78.5063 10.2178C79.8984 10.2178 81.1815 10.3835 82.3558 10.715C83.53 11.037 84.5527 11.5104 85.424 12.1354C86.2952 12.751 86.9675 13.5085 87.441 14.4082C87.924 15.3078 88.1654 16.3352 88.1654 17.4906V32.3201H81.6313V29.2803H81.4609C81.0726 30.019 80.5755 30.644 79.9694 31.1553C79.3728 31.6667 78.6673 32.0502 77.8529 32.3059C77.048 32.5616 76.1389 32.6894 75.1257 32.6894ZM77.2706 28.144C78.0187 28.144 78.691 27.9924 79.2876 27.6894C79.8937 27.3864 80.3766 26.9697 80.7365 26.4394C81.0963 25.8996 81.2762 25.2746 81.2762 24.5644V22.4906C81.0774 22.5947 80.8359 22.6894 80.5518 22.7746C80.2772 22.8599 79.9742 22.9404 79.6427 23.0161C79.3113 23.0919 78.9704 23.1582 78.62 23.215C78.2696 23.2718 77.9334 23.3239 77.6115 23.3712C76.9581 23.4754 76.3993 23.6364 75.9353 23.8542C75.4808 24.072 75.1304 24.3561 74.8842 24.7065C74.6474 25.0474 74.5291 25.4546 74.5291 25.9281C74.5291 26.6477 74.7848 27.197 75.2961 27.5758C75.817 27.9546 76.4751 28.144 77.2706 28.144Z" fill="black"/>
<path d="M99.3586 19.8769V32.3201H92.4126V10.5019H99.0177V14.5076H99.2592C99.7421 13.1724 100.566 12.126 101.731 11.3684C102.896 10.6013 104.283 10.2178 105.893 10.2178C107.427 10.2178 108.757 10.5635 109.884 11.2548C111.021 11.9366 111.901 12.893 112.526 14.1241C113.161 15.3457 113.473 16.7756 113.464 18.4138V32.3201H106.518V19.7775C106.527 18.5654 106.219 17.6184 105.594 16.9366C104.979 16.2548 104.122 15.9138 103.023 15.9138C102.294 15.9138 101.65 16.0748 101.092 16.3968C100.542 16.7093 100.116 17.1591 99.8132 17.7462C99.5196 18.3334 99.3681 19.0436 99.3586 19.8769Z" fill="black"/>
<path d="M122.665 19.3656V32.3201H118.418V3.22919H122.608V14.0531H122.878C123.389 12.8788 124.17 11.946 125.222 11.2548C126.273 10.5635 127.646 10.2178 129.341 10.2178C130.837 10.2178 132.144 10.5256 133.261 11.1411C134.388 11.7566 135.259 12.6752 135.875 13.8968C136.5 15.1089 136.812 16.6241 136.812 18.4423V32.3201H132.565V18.9536C132.565 17.3532 132.153 16.1127 131.329 15.232C130.506 14.3419 129.36 13.8968 127.892 13.8968C126.888 13.8968 125.989 14.1099 125.193 14.536C124.407 14.9621 123.787 15.5871 123.332 16.411C122.887 17.2254 122.665 18.2102 122.665 19.3656Z" fill="black"/>
<path d="M151.67 32.7604C149.625 32.7604 147.84 32.2917 146.315 31.3542C144.791 30.4167 143.607 29.1051 142.764 27.4195C141.921 25.7339 141.5 23.7642 141.5 21.5104C141.5 19.2472 141.921 17.268 142.764 15.5729C143.607 13.8779 144.791 12.5616 146.315 11.6241C147.84 10.6866 149.625 10.2178 151.67 10.2178C153.716 10.2178 155.501 10.6866 157.026 11.6241C158.55 12.5616 159.734 13.8779 160.577 15.5729C161.419 17.268 161.841 19.2472 161.841 21.5104C161.841 23.7642 161.419 25.7339 160.577 27.4195C159.734 29.1051 158.55 30.4167 157.026 31.3542C155.501 32.2917 153.716 32.7604 151.67 32.7604ZM151.685 29.1951C153.01 29.1951 154.109 28.8447 154.98 28.144C155.851 27.4432 156.495 26.5104 156.912 25.3457C157.338 24.1809 157.551 22.8977 157.551 21.4962C157.551 20.1042 157.338 18.8258 156.912 17.661C156.495 16.4868 155.851 15.5445 154.98 14.8343C154.109 14.1241 153.01 13.769 151.685 13.769C150.349 13.769 149.241 14.1241 148.361 14.8343C147.49 15.5445 146.841 16.4868 146.415 17.661C145.998 18.8258 145.79 20.1042 145.79 21.4962C145.79 22.8977 145.998 24.1809 146.415 25.3457C146.841 26.5104 147.49 27.4432 148.361 28.144C149.241 28.8447 150.349 29.1951 151.685 29.1951Z" fill="black"/>
<path d="M182.931 15.8286L179.082 16.5104C178.921 16.018 178.665 15.5493 178.315 15.1042C177.974 14.6591 177.51 14.2945 176.923 14.0104C176.335 13.7263 175.602 13.5843 174.721 13.5843C173.518 13.5843 172.514 13.8542 171.709 14.394C170.905 14.9243 170.502 15.6108 170.502 16.4536C170.502 17.1828 170.772 17.7699 171.312 18.215C171.852 18.6601 172.723 19.0246 173.925 19.3087L177.391 20.1042C179.399 20.5682 180.895 21.2832 181.88 22.2491C182.865 23.215 183.357 24.4697 183.357 26.0133C183.357 27.3201 182.978 28.4849 182.221 29.5076C181.473 30.5209 180.426 31.3163 179.082 31.894C177.746 32.4716 176.198 32.7604 174.437 32.7604C171.994 32.7604 170 32.2396 168.457 31.1979C166.913 30.1468 165.966 28.6553 165.616 26.7235L169.721 26.0985C169.977 27.1686 170.502 27.9782 171.298 28.5275C172.093 29.0673 173.13 29.3371 174.408 29.3371C175.8 29.3371 176.913 29.0483 177.746 28.4707C178.58 27.8835 178.996 27.1686 178.996 26.3258C178.996 25.644 178.741 25.071 178.229 24.607C177.727 24.143 176.956 23.7926 175.914 23.5559L172.221 22.7462C170.185 22.2822 168.679 21.5436 167.704 20.5303C166.738 19.5171 166.255 18.2339 166.255 16.6809C166.255 15.393 166.615 14.2661 167.334 13.3002C168.054 12.3343 169.048 11.5815 170.317 11.0417C171.586 10.4924 173.04 10.2178 174.678 10.2178C177.036 10.2178 178.892 10.7292 180.246 11.7519C181.601 12.7652 182.495 14.1241 182.931 15.8286Z" fill="black"/>
<path d="M198.212 10.5019V13.911H186.294V10.5019H198.212ZM189.49 5.27464H193.737V25.9138C193.737 26.7377 193.86 27.358 194.106 27.7746C194.353 28.1818 194.67 28.4612 195.058 28.6127C195.456 28.7548 195.887 28.8258 196.351 28.8258C196.692 28.8258 196.99 28.8021 197.246 28.7548C197.501 28.7074 197.7 28.6695 197.842 28.6411L198.609 32.1496C198.363 32.2443 198.013 32.339 197.558 32.4337C197.104 32.5379 196.535 32.5947 195.854 32.6042C194.736 32.6231 193.695 32.4243 192.729 32.0076C191.763 31.5909 190.981 30.947 190.385 30.0758C189.788 29.2046 189.49 28.1108 189.49 26.7945V5.27464Z" fill="black"/>
<path fill-rule="evenodd" clip-rule="evenodd" d="M1.25581 6.08965C1.94937 6.08965 2.51163 6.65191 2.51163 7.34547H1.25581H0C0 6.65191 0.562253 6.08965 1.25581 6.08965ZM34.7442 7.34547C36 7.34547 36 7.34555 36 7.34572V29.9501C36 31.2525 35.1256 32.2412 34.1548 32.9297C33.1515 33.6414 31.7811 34.2308 30.2008 34.705C27.0241 35.6579 22.7108 36.2292 18 36.2292C13.2892 36.2292 8.97592 35.6579 5.79923 34.705C4.21888 34.2308 2.84849 33.6414 1.84514 32.9297C0.874432 32.2412 3.35339e-05 31.2525 3.35339e-05 29.9501L0 7.34547C0 7.3453 0 7.34547 1.25581 7.34547C2.51163 7.34547 2.51163 7.3453 2.51163 7.34547L2.51166 29.9501C2.51166 30.0348 2.57432 30.3677 3.2982 30.8811C3.98947 31.3714 5.07119 31.8643 6.52094 32.2993C9.40444 33.1643 13.4632 33.7176 18 33.7176C22.5368 33.7176 26.5956 33.1643 29.4791 32.2993C30.9289 31.8643 32.0105 31.3714 32.7019 30.8811C33.4258 30.3677 33.4884 30.0348 33.4884 29.9501V7.34642C33.4884 7.34625 33.4884 7.34547 34.7442 7.34547ZM34.7442 7.34547L36 7.34572C36.0002 6.65214 35.4379 6.08965 34.7444 6.08965C34.0506 6.08965 33.4885 6.65286 33.4884 7.34642L34.7442 7.34547Z" fill="#1741D4"/>
<path fill-rule="evenodd" clip-rule="evenodd" d="M1.25581 21.1594C1.94937 21.1594 2.51163 21.7217 2.51163 22.4152C2.51163 22.5 2.5743 22.8328 3.29819 23.3462C3.98944 23.8365 5.07118 24.3294 6.52092 24.7643C9.40444 25.6294 13.4632 26.1827 18 26.1827C22.5368 26.1827 26.5956 25.6294 29.4791 24.7643C30.9289 24.3294 32.0105 23.8365 32.7019 23.3462C33.4258 22.8328 33.4884 22.5 33.4884 22.4152C33.4884 21.7217 34.0506 21.1594 34.7442 21.1594C35.4377 21.1594 36 21.7217 36 22.4152C36 23.7176 35.1256 24.7063 34.1548 25.3949C33.1515 26.1065 31.7811 26.6959 30.2008 27.1701C27.0241 28.123 22.7108 28.6943 18 28.6943C13.2892 28.6943 8.97591 28.123 5.79921 27.1701C4.21886 26.6959 2.84847 26.1065 1.84513 25.3949C0.874415 24.7063 0 23.7176 0 22.4152C0 21.7217 0.562253 21.1594 1.25581 21.1594Z" fill="#1741D4"/>
<path fill-rule="evenodd" clip-rule="evenodd" d="M1.25581 13.6245C1.94937 13.6245 2.51163 14.1868 2.51163 14.8804C2.51163 14.9651 2.5743 15.2979 3.29819 15.8113C3.98944 16.3016 5.07118 16.7945 6.52092 17.2294C9.40444 18.0946 13.4632 18.6478 18 18.6478C22.5368 18.6478 26.5956 18.0946 29.4791 17.2294C30.9289 16.7945 32.0105 16.3016 32.7019 15.8113C33.4258 15.2979 33.4884 14.9651 33.4884 14.8804C33.4884 14.1868 34.0506 13.6245 34.7442 13.6245C35.4377 13.6245 36 14.1868 36 14.8804C36 16.1827 35.1256 17.1715 34.1548 17.86C33.1515 18.5716 31.7811 19.161 30.2008 19.6352C27.0241 20.5881 22.7108 21.1594 18 21.1594C13.2892 21.1594 8.97591 20.5881 5.79921 19.6352C4.21886 19.161 2.84847 18.5716 1.84513 17.86C0.874415 17.1715 0 16.1827 0 14.8804C0 14.1868 0.562253 13.6245 1.25581 13.6245Z" fill="#1741D4"/>
<path fill-rule="evenodd" clip-rule="evenodd" d="M3.29819 5.5773C2.5743 6.09074 2.51163 6.42353 2.51163 6.50826C2.51163 6.59298 2.5743 6.92577 3.29819 7.43922C3.98945 7.92952 5.07118 8.42245 6.52092 8.85738C9.40444 9.72244 13.4632 10.2757 18 10.2757C22.5368 10.2757 26.5956 9.72244 29.4791 8.85738C30.9289 8.42245 32.0105 7.92952 32.7019 7.43922C33.4258 6.92577 33.4884 6.59298 33.4884 6.50826C33.4884 6.42353 33.4258 6.09074 32.7019 5.5773C32.0105 5.08699 30.9289 4.59406 29.4791 4.15913C26.5956 3.29408 22.5368 2.74081 18 2.74081C13.4632 2.74081 9.40444 3.29408 6.52092 4.15913C5.07118 4.59406 3.98945 5.08699 3.29819 5.5773ZM5.79921 1.75343C8.97591 0.800415 13.2892 0.229187 18 0.229187C22.7108 0.229187 27.0241 0.800415 30.2008 1.75343C31.7811 2.22754 33.1515 2.81702 34.1548 3.52866C35.1256 4.21717 36 5.20586 36 6.50826C36 7.81065 35.1256 8.79935 34.1548 9.48785C33.1515 10.1995 31.7811 10.789 30.2008 11.2631C27.0241 12.2161 22.7108 12.7873 18 12.7873C13.2892 12.7873 8.97591 12.2161 5.79921 11.2631C4.21886 10.789 2.84847 10.1995 1.84513 9.48785C0.874415 8.79935 0 7.81065 0 6.50826C0 5.20586 0.874415 4.21717 1.84513 3.52866C2.84847 2.81702 4.21886 2.22754 5.79921 1.75343Z" fill="#1741D4"/>
</svg>
